<svg width="100" height="100" viewBox="0 0 100 100" fill="none" xmlns="http://www.w3.org/2000/svg">
<rect width="100" height="100" fill="#262626"/>
<path d="M57 41H43C41.8954 41 41 41.8954 41 43V57C41 58.1046 41.8954 59 43 59H57C58.1046 59 59 58.1046 59 57V43C59 41.8954 58.1046 41 57 41Z" stroke="#666666" stroke-width="2" stroke-linecap="round" stroke-linejoin="round"/>
<path d="M47 49C48.1046 49 49 48.1046 49 47C49 45.8954 48.1046 45 47 45C45.8954 45 45 45.8954 45 47C45 48.1046 45.8954 49 47 49Z" stroke="#666666" stroke-width="2" stroke-linecap="round" stroke-linejoin="round"/>
<path d="M59 52.9997L55.914 49.9137C55.5389 49.5388 55.0303 49.3281 54.5 49.3281C53.9697 49.3281 53.4611 49.5388 53.086 49.9137L44 58.9997" stroke="#666666" stroke-width="2" stroke-linecap="round" stroke-linejoin="round"/>
</svg>
