<svg width="306" height="189" viewBox="0 0 306 189" fill="none" xmlns="http://www.w3.org/2000/svg">
<path d="M0.5 0.5C10.9739 85.3324 88.6703 249.842 282.32 163.434" stroke="#A20405" stroke-linecap="round" stroke-dasharray="5 5"/>
<path d="M297.885 166.252L297.54 154.924L302.279 151.125C304.311 149.497 305.301 146.962 304.938 145.513C303.898 144.606 301.504 144.785 299.473 146.413L294.734 150.212L285.723 145.83C285.171 145.576 284.672 145.745 284.359 146.228L283.911 146.819C283.577 147.434 283.587 148.123 283.982 148.618L289.318 154.553L286.4 158.052L282.966 157.324L281.612 158.409L284.628 161.794L286.29 166.263L287.644 165.178L288.271 161.194L292.124 159.266L295.022 167.154C295.282 167.758 295.833 168.012 296.448 167.868L297.062 167.724C297.583 167.423 297.895 166.94 297.885 166.252Z" fill="#A20405" stroke="#A20405" stroke-width="2" stroke-linecap="round" stroke-linejoin="round"/>
</svg>
